<svg t="1683630861327" class="icon" viewBox="0 0 1024 1024" version="1.1" xmlns="http://www.w3.org/2000/svg" p-id="3964" width="16" height="16"><path d="M256 818.963l-3.152-0.03c-105.33 0-201.648-108.75-201.648-215.635 0-118.868 77.986-218.565 172.82-244.98C264.88 244.136 389.361 153.6 523.571 153.6c144.4 0 264.068 106.407 287.93 237.577-97.444 7.67-182.958 53.843-213.118 113.596-11.93 27.48-14.85 35.363 0 29.345 36.612-70.139 116.085-109.336 201.597-116.792 54.242 7.456 99.099 13.287 144.041 88.246 16.591 28.493 28.778 71.592 28.778 132.1 0 90.764-88.637 181.528-178.913 181.528H256v-0.237zM460.8 716.8H512v102.4h-51.2V716.8z m153.6 0h51.2v102.4h-51.2V716.8z m-307.2 0h51.2v102.4h-51.2V716.8z" p-id="3965" fill="#515151"></path></svg>
