<svg t="1683600318190" class="icon" viewBox="0 0 1131 1024" version="1.1" xmlns="http://www.w3.org/2000/svg" p-id="5960" width="16" height="16"><path d="M497.408 27.775c-16.051 1.684-43.102 5.725-44.898 6.622-1.011 0.561-8.306 2.020-16.276 3.368-8.082 1.347-14.705 2.919-14.928 3.48-0.225 0.561-1.122 1.011-2.133 1.011-2.469 0-20.541 4.378-25.032 6.173-5.275 2.020-20.653 6.173-22.899 6.173-1.011 0-1.796 0.449-1.796 1.122 0 0.561-1.347 1.347-3.030 1.796-5.5 1.122-18.858 5.388-19.418 6.061-0.338 0.338-4.041 1.796-8.418 3.255-4.265 1.572-8.867 3.368-10.102 4.153-1.234 0.673-3.48 1.684-5.052 2.133-1.572 0.338-5.838 2.245-9.541 4.041-3.704 1.684-8.531 3.929-10.664 4.939-2.133 0.899-5.164 2.469-6.734 3.255-1.572 0.899-4.602 2.358-6.734 3.368-2.133 1.011-8.195 4.153-13.469 6.96s-10.999 5.949-12.908 6.96c-1.796 0.899-5.949 3.48-9.205 5.5-3.255 2.020-6.398 3.704-7.071 3.704-0.673 0-1.459 0.786-1.796 1.684-0.338 0.899-1.684 1.908-3.032 2.358-1.347 0.449-6.398 3.592-11.225 7.073-4.826 3.48-9.653 6.734-10.664 7.408-3.592 2.133-15.378 11.113-22.673 17.173-13.358 11.113-15.715 13.133-20.317 17.286-2.582 2.358-5.052 4.265-5.613 4.265s-1.011 0.673-1.011 1.572c0 0.899-0.899 1.908-2.020 2.245-2.245 0.786-27.164 25.928-27.164 27.613 0 0.561-0.673 1.459-1.572 1.908-2.694 1.572-30.979 35.581-34.908 41.98-0.561 1.122-4.041 5.949-7.521 10.887-3.592 4.939-6.511 9.541-6.511 10.214 0 0.561-0.673 1.572-1.459 2.020-1.684 1.011-8.082 11.786-7.745 12.908 0.112 0.561-0.225 0.899-0.899 0.899-0.561 0-2.358 2.358-3.929 5.275-1.572 3.032-4.602 8.418-6.734 12.123-2.133 3.704-5.388 9.541-7.295 12.908-1.908 3.368-3.815 6.96-4.378 7.857-0.561 0.899-2.245 4.153-3.704 7.295-1.347 3.032-2.806 5.838-3.142 6.173-0.338 0.338-1.796 3.592-3.255 7.295-1.572 3.704-3.142 6.96-3.48 7.295-0.449 0.338-2.133 4.041-3.929 8.418-1.684 4.265-3.48 8.082-3.815 8.418-0.449 0.338-2.020 4.378-3.48 8.979s-3.032 8.643-3.48 8.979c-0.786 0.561-6.511 18.968-6.96 22.449-0.112 0.899-0.561 1.908-0.899 2.245-0.449 0.338-1.796 7.073-3.142 15.153-3.032 18.072-4.265 51.185-2.469 67.908 1.234 12.796 4.041 24.806 5.836 25.928 0.673 0.338 1.122 1.011 1.122 1.459-0.112 0.899 4.49 10.439 7.521 15.153 3.142 5.052 17.959 20.092 20.541 20.878 1.234 0.449 2.133 1.122 2.133 1.684 0 1.684 14.255 8.755 21.439 10.664 3.929 1.011 8.979 2.245 11.113 2.806 4.153 1.122 26.041 3.48 52.755 5.725 8.979 0.673 16.5 1.795 16.837 2.245 0.338 0.561 5.275 1.122 10.887 1.234 9.878 0.338 10.326 0.223 14.48-3.142 4.378-3.368 9.205-11.448 14.705-24.581 1.572-3.704 3.142-6.96 3.592-7.295 1.122-0.899 5.725-10.552 5.725-12.010 0-0.786 0.673-1.795 1.459-2.245 0.673-0.449 2.582-3.142 4.153-5.949 1.459-2.806 3.592-6.061 4.714-7.184 1.122-1.234 2.020-2.694 2.020-3.255 0-1.011 8.306-12.908 11.786-16.838 1.011-1.122 2.58-3.368 3.704-5.052 1.011-1.684 3.142-4.49 4.714-6.286 4.602-5.386 32.888-33.561 37.041-36.929 8.082-6.286 13.581-10.439 20.765-15.378 4.041-2.806 8.418-5.949 9.766-7.073 1.347-1.011 2.806-1.908 3.48-1.908 0.561 0 3.142-1.459 5.725-3.142 2.469-1.684 6.622-4.041 9.092-5.052 2.469-1.122 5.275-2.469 6.173-3.142 2.133-1.347 7.073-3.592 13.469-6.173 2.806-1.122 5.275-2.358 5.613-2.806 0.338-0.338 4.153-1.795 8.418-3.255 4.378-1.459 8.082-2.919 8.418-3.368 0.338-0.449 5.164-2.020 10.664-3.368 5.612-1.347 11.337-3.032 12.908-3.592 4.826-1.908 13.694-4.041 23.011-5.5 4.939-0.786 9.205-1.684 9.541-2.133 0.673-0.899 14.817-2.919 31.99-4.602 7.408-0.786 13.694-1.684 14.031-2.133 0.899-1.347 42.204-3.368 66.898-3.368 30.643 0 74.868 2.020 75.765 3.48 0.338 0.673 2.358 1.011 4.49 0.786 4.378-0.449 5.164-2.358 5.388-14.48 0-4.041 0.561-7.745 1.122-8.418 0.561-0.561 2.358-22 4.153-47.593 1.684-25.592 3.48-46.806 3.815-47.144 0.673-0.561 5.725-67.571 5.612-75.541 0-2.245 0.449-4.153 0.899-4.153s2.020-16.276 3.48-36.255c2.469-33.673 2.469-36.817 0.899-45.235-1.796-9.316-6.286-19.307-11.786-26.153-6.734-8.418-16.949-17.622-21.214-19.307-1.459-0.561-2.582-1.347-2.582-1.796 0-0.561-2.919-2.469-6.398-4.265-3.592-1.908-7.184-4.041-7.969-4.826-0.786-0.673-2.245-1.347-3.142-1.347-0.899 0-4.714-1.459-8.306-3.255-11.448-5.725-26.714-8.195-51.071-8.643-11.674-0.112-25.592 0.225-30.867 0.786zM920.013 107.021c-8.082 1.684-17.959 7.857-27.275 17.061-5.949 5.838-13.694 15.715-13.694 17.511 0 0.449-1.459 2.806-3.255 5.388-1.684 2.58-4.041 6.622-5.164 8.867-1.011 2.358-2.358 4.265-2.919 4.265s-1.011 0.449-1.011 1.122c0 1.011-7.184 13.358-13.020 22.449-1.347 2.133-3.368 5.838-4.49 8.082-1.122 2.358-2.358 4.265-2.919 4.265-0.449 0-0.899 0.561-0.899 1.234 0 0.673-1.572 3.368-3.368 6.173-1.908 2.694-3.142 4.939-2.806 4.939 0.338 0 0.112 0.673-0.561 1.347-1.459 1.684-5.387 8.195-9.541 15.827-1.572 2.919-4.602 8.082-6.734 11.448-2.133 3.368-3.929 6.622-3.929 7.295 0 0.561-0.449 1.122-1.122 1.122-0.561 0-1.122 0.673-1.234 1.347 0 0.786-1.572 3.704-3.255 6.511-1.796 2.806-4.602 7.408-6.061 10.214-1.572 2.919-4.378 7.521-6.286 10.326-1.796 2.806-3.368 5.613-3.368 6.286 0 0.673-0.449 1.234-1.122 1.234-0.561 0-1.122 0.673-1.122 1.572 0 0.899-0.338 1.796-0.786 2.020-0.561 0.112-1.796 2.133-3.032 4.265-5.725 10.775-8.418 15.49-11.225 19.531-1.572 2.358-2.919 4.826-2.919 5.5 0 0.673-1.234 2.694-2.694 4.602-1.459 1.908-3.704 5.725-5.052 8.418-1.459 2.694-3.030 5.5-3.704 6.173-1.347 1.572-5.388 8.306-9.428 15.827-1.684 3.032-4.49 7.745-6.173 10.326-1.796 2.582-3.255 5.052-3.255 5.388 0 0.449-2.806 5.164-6.173 10.552-4.041 6.511-6.173 10.887-6.173 13.245 0 3.255 0.449 3.704 5.949 5.387 3.142 1.011 6.622 2.133 7.521 2.469 0.899 0.449 1.908 0.786 2.245 0.899 4.49 1.572 11.448 4.826 33.674 15.601 18.97 9.092 26.153 12.347 27.275 12.123 0.449-0.112 0.786 0.225 0.786 0.786 0 0.561 1.122 1.459 2.469 1.908 1.347 0.338 5.612 2.694 9.541 5.052 3.929 2.469 7.408 4.378 7.857 4.378 0.338 0 3.815 2.020 7.745 4.49 3.929 2.469 7.408 4.49 7.745 4.49 0.338 0 5.386 3.255 11.225 7.295 5.949 4.041 11.225 7.295 11.786 7.295 0.673 0 1.122 0.449 1.122 1.122 0 0.561 1.347 1.796 3.142 2.694 1.684 0.899 7.633 5.164 13.133 9.541 5.612 4.49 11.561 9.205 13.358 10.552 11.225 8.643 48.939 46.245 48.939 48.939 0 0.561 1.347 2.133 3.142 3.48 1.684 1.347 3.032 2.806 3.032 3.255 0 0.338 1.908 3.142 4.265 6.061 2.245 2.919 5.949 7.521 8.082 10.214 2.133 2.694 3.929 5.388 3.929 5.838 0 0.338 3.032 5.052 6.847 10.326 3.704 5.164 7.295 10.775 7.857 12.347 0.561 1.572 2.582 5.052 4.378 7.745 1.908 2.694 3.368 5.388 3.368 5.949s0.899 1.796 1.908 2.806c1.011 1.122 2.020 3.255 2.133 4.826 0.225 1.572 0.786 3.142 1.347 3.48 0.561 0.338 2.245 3.48 3.704 6.847 3.030 6.96 8.755 12.908 14.367 14.705 4.153 1.459 16.051 0.449 19.754-1.572 1.234-0.673 2.919-1.122 3.704-1.011 0.673 0.225 1.347-0.112 1.347-0.673s2.245-1.908 5.052-2.919c6.286-2.469 24.583-19.531 32.439-30.418 7.521-10.102 13.694-22.226 14.705-28.622 0.449-2.806 1.347-5.613 1.908-6.398 0.561-0.786 0.786-1.908 0.449-2.469-0.449-0.561-0.223-1.347 0.449-1.795 0.673-0.449 0.899-1.234 0.561-1.796-0.449-0.561-0.223-1.011 0.223-1.011 0.561 0 2.020-4.602 3.142-10.102 1.122-5.5 2.582-10.102 3.142-10.102 0.449 0 0.786-0.899 0.673-2.020-0.112-1.011 0.112-2.806 0.673-3.929 0.449-1.011 0.561-2.582 0.223-3.48-0.338-0.899-0.223-1.796 0.338-2.020 0.449-0.225 1.796-8.418 2.806-18.296 1.572-14.48 1.795-24.133 1.347-49.95-0.561-31.766-2.58-62.072-4.041-62.633-0.449-0.112-0.561-2.020-0.338-4.153 0.223-2.133 0.112-4.826-0.449-5.836-0.449-1.122-1.011-3.592-1.122-5.388-0.338-4.602-4.826-28.735-5.725-30.867-0.338-0.899-0.786-2.245-0.899-2.806-0.112-0.673-0.338-1.347-0.561-1.684-0.112-0.338-0.449-1.572-0.673-2.806-1.122-6.96-5.052-20.204-6.061-20.541-0.561-0.225-0.786-1.684-0.449-3.142 0.338-1.459 0.223-2.694-0.338-2.694s-1.684-2.694-2.469-5.949c-0.899-3.142-2.245-7.633-3.255-9.766-0.899-2.133-1.795-4.153-1.908-4.49-0.112-0.338-0.786-2.020-1.459-3.704-0.786-1.796-1.347-3.368-1.347-3.592 0-0.338-1.459-3.704-3.142-7.521-1.795-3.929-3.815-8.755-4.602-10.775-0.899-1.908-2.020-3.592-2.58-3.592-0.561 0-0.673-0.561-0.338-1.122 0.338-0.673 0.223-1.122-0.338-1.122-0.673 0-1.459-1.347-1.908-3.142-0.338-1.684-3.592-7.969-7.073-14.143-3.48-6.061-7.857-13.581-9.653-16.837-1.684-3.142-3.815-6.511-4.714-7.521-0.899-0.899-1.572-2.245-1.572-2.806 0-0.673-1.122-2.358-2.469-3.815-1.459-1.572-2.469-3.032-2.358-3.368 0.112-0.338-2.020-3.704-4.826-7.295-2.694-3.704-5.275-7.633-5.613-8.643-0.338-1.122-1.122-2.020-1.684-2.020s-1.011-0.561-1.011-1.347c0-1.011-7.408-11.448-14.255-19.98-0.786-0.899-2.806-3.815-4.49-6.398-4.041-6.061-25.592-29.97-34.684-38.388-15.040-14.143-21.774-16.949-39.173-16.837-6.173 0.112-12.235 0.338-13.469 0.673z" p-id="5961"></path><path d="M497.408 396.389c-1.572 0.225-10.214 1.011-19.418 1.796-9.092 0.673-16.838 1.795-17.173 2.245-0.338 0.561-2.582 0.673-5.052 0.338-3.030-0.561-4.378-0.338-4.378 0.561s-1.234 1.122-3.929 0.561c-2.133-0.338-3.929-0.225-3.929 0.338s-5.275 2.020-11.786 3.142c-6.511 1.122-11.786 2.469-11.786 2.806 0 0.449-1.234 0.561-2.806 0.225-1.796-0.338-2.806 0-2.806 0.899 0 0.786-0.786 1.122-1.795 0.673-1.011-0.449-2.469-0.225-3.142 0.338-0.673 0.449-3.929 1.572-7.184 2.358-3.142 0.673-6.061 1.795-6.398 2.358-0.338 0.449-1.347 0.673-2.245 0.225-0.899-0.338-1.684 0-1.684 0.786 0 0.673-0.561 0.899-1.122 0.561-0.673-0.449-1.908-0.225-2.694 0.449-0.786 0.673-4.939 2.245-9.205 3.592-4.265 1.347-8.082 2.919-8.418 3.48-0.338 0.561-1.011 1.011-1.459 0.899-0.338 0-3.030 0.899-5.838 2.245-2.919 1.234-5.949 2.245-6.734 2.245-0.786 0-2.358 1.011-3.48 2.133-1.122 1.122-4.153 2.806-6.734 3.592-2.694 0.673-4.826 1.796-4.826 2.358 0 0.449-3.48 2.469-7.857 4.378-4.265 2.020-7.857 4.041-7.857 4.49 0 0.561-2.245 2.020-4.826 3.255-2.694 1.347-6.734 4.041-8.979 6.061-2.245 2.020-4.265 3.48-4.602 3.255-0.225-0.223-1.684 0.786-3.255 2.358-1.684 1.572-3.48 2.919-4.041 2.919-1.459 0-6.734 4.826-25.367 23.46-8.306 8.306-15.153 15.49-15.153 15.939 0 0.561-1.459 2.020-3.368 3.48-1.796 1.347-3.368 3.142-3.368 3.929 0 0.786-1.459 2.469-3.368 3.929-1.796 1.347-3.368 3.032-3.368 3.592 0 0.673-1.796 3.48-4.041 6.286-2.245 2.806-4.49 6.173-5.052 7.521-0.561 1.459-1.459 2.58-2.133 2.58-0.673 0-0.899 0.449-0.561 1.122 0.338 0.561 0.112 1.122-0.561 1.122s-1.459 0.899-1.908 1.908c-0.338 1.122-1.684 3.368-2.806 5.052-1.234 1.796-1.796 3.142-1.234 3.142 0.449 0 0.112 0.673-0.899 1.459-1.011 0.786-2.919 3.592-4.265 6.398-4.041 8.306-7.857 15.040-8.979 16.5-0.673 0.786-0.899 2.020-0.561 2.919 0.338 0.899-0.225 1.908-1.122 2.245-1.011 0.449-1.796 1.459-1.796 2.245s-1.234 3.929-2.806 6.96c-1.459 3.030-2.469 5.838-2.133 6.398 0.338 0.449 0.112 0.899-0.561 0.899-0.561 0-2.020 3.032-3.142 6.734-1.011 3.704-2.358 6.734-2.806 6.734-0.449 0-0.561 0.786-0.225 1.684 0.449 0.899 0.112 1.684-0.673 1.684s-1.122 0.673-0.786 1.572c0.338 0.899 0.223 1.795-0.338 2.020-0.449 0.225-1.908 3.815-3.032 8.193-1.122 4.265-2.358 8.195-2.919 8.531-0.449 0.338-0.561 1.459-0.112 2.469 0.449 1.122 0.112 1.908-0.673 1.908s-1.122 0.899-0.786 2.245c0.338 1.234 0.225 2.245-0.225 2.245s-1.459 3.48-2.245 7.857c-0.786 4.265-1.908 8.193-2.582 8.531-0.561 0.338-0.786 1.908-0.449 3.368 0.449 1.684 0.225 2.694-0.561 2.694s-1.011 1.234-0.561 3.368c0.338 2.133 0.112 3.368-0.561 3.368-0.786 0-1.122 1.572-0.786 3.929 0.225 2.133 0.112 3.929-0.338 3.929-1.796 0-3.592 28.398-4.041 63.419-0.449 30.979-0.225 41.194 1.347 54.439 1.011 8.979 2.245 16.388 2.806 16.611 0.449 0.225 0.673 1.234 0.338 2.358s0 2.469 0.673 2.806c0.673 0.449 0.899 2.245 0.449 4.041-0.338 2.020-0.112 3.368 0.561 3.368 0.561 0 2.020 3.815 3.030 8.418 1.122 4.602 2.358 8.418 2.919 8.418 0.449 0 0.561 1.011 0.225 2.245s0 2.245 0.673 2.245c0.561 0 0.899 0.786 0.561 1.684-0.449 0.899-0.225 1.684 0.449 1.684 0.673 0 2.020 2.806 3.142 6.286 1.011 3.48 2.58 6.96 3.368 7.745 0.786 0.786 1.122 1.684 0.786 2.133-0.449 0.338-0.225 0.673 0.338 0.673 0.673 0 2.020 2.469 3.142 5.613 1.122 3.032 2.469 5.612 3.142 5.612 0.561 0 0.673 0.561 0.338 1.122-0.338 0.673-0.225 1.122 0.449 1.122 0.673 0 2.020 1.796 3.032 3.929 1.011 2.133 2.245 3.929 2.806 3.929s1.908 2.133 3.142 4.826c1.234 2.582 3.704 6.511 5.612 8.643 1.908 2.133 5.164 5.949 7.184 8.306 6.173 7.408 21.326 23.122 21.888 22.673 0.225-0.338 1.908 1.234 3.815 3.368 1.796 2.020 5.836 5.386 8.755 7.295 3.032 1.908 5.725 4.265 6.061 5.052 0.338 0.899 1.347 1.572 2.133 1.572 0.899 0 2.806 1.122 4.378 2.582 2.694 2.358 5.725 4.378 10.439 6.847 1.234 0.673 3.032 1.908 3.929 2.694 3.255 2.919 25.592 14.255 27.275 13.919 0.449-0.112 0.786 0.225 0.786 0.786 0 0.561 2.469 1.908 5.613 2.919 3.032 1.011 5.836 2.245 6.173 2.806 0.338 0.561 1.347 0.786 2.245 0.338 0.899-0.338 1.684-0.112 1.684 0.561 0 1.011 6.847 3.929 12.684 5.164 1.684 0.449 3.032 1.234 3.032 1.908 0 0.673 1.011 0.899 2.245 0.449 1.234-0.338 2.245-0.225 2.245 0.338s3.592 2.020 7.857 3.142c4.378 1.122 7.857 2.469 7.857 3.030s0.786 0.786 1.684 0.449c0.899-0.449 1.908-0.225 2.358 0.449 0.338 0.561 1.572 0.786 2.806 0.449 1.122-0.449 2.133-0.223 2.133 0.338 0 0.899 13.694 4.714 17.286 4.714 1.011 0 1.795 0.561 1.795 1.234 0 0.673 1.011 1.011 2.245 0.673 1.234-0.338 2.245-0.112 2.245 0.561s1.459 0.899 3.368 0.673c1.908-0.338 3.368-0.225 3.368 0.225s4.265 1.459 9.541 2.245 9.541 1.908 9.541 2.469c0 0.561 1.572 0.786 3.368 0.338 2.245-0.449 3.368-0.338 3.368 0.673 0 0.899 1.347 1.122 4.49 0.673 2.358-0.338 4.49-0.112 4.714 0.449 0.223 0.449 9.653 1.796 21.102 2.919 30.193 2.806 92.827 2.806 121.562-0.112 11.561-1.234 20.991-2.582 20.991-3.142s1.796-0.673 3.929-0.223c2.469 0.449 4.602 0.223 5.612-0.673 0.899-0.673 2.582-1.011 3.929-0.561 1.234 0.338 2.245 0.225 2.245-0.338s4.826-1.572 10.775-2.358c5.949-0.673 11.448-1.684 12.123-2.020 0.673-0.449 2.133-0.673 3.255-0.561 1.122 0.223 2.694-0.225 3.592-0.899 0.899-0.673 2.58-1.011 3.929-0.561 1.234 0.338 2.245 0.338 2.245-0.225s5.052-1.908 11.225-3.030c6.173-1.122 11.225-2.469 11.225-3.142 0-0.561 1.347-0.786 3.368-0.338 2.245 0.449 3.368 0.338 3.368-0.561s1.011-1.122 2.806-0.673c1.572 0.449 2.806 0.338 2.806-0.225 0-0.786 4.153-1.908 17.734-4.826 3.142-0.673 5.838-1.572 5.838-2.020 0-0.561 4.826-2.020 10.664-3.48s10.664-3.032 10.664-3.704c0-0.561 0.786-0.786 1.684-0.449 0.899 0.449 1.908 0.225 2.245-0.338 0.338-0.561 2.694-1.572 5.052-2.245 2.469-0.673 4.49-1.796 4.49-2.469 0-0.561 1.011-0.899 2.245-0.561 1.234 0.338 2.245 0.112 2.245-0.449 0-0.449 0.786-0.673 1.684-0.338 0.899 0.449 1.684 0.225 1.684-0.449 0-0.561 1.122-1.347 2.58-1.684 5.052-1.234 12.571-4.378 13.358-5.612 0.449-0.786 0.899-0.899 0.899-0.338s0.673 0.449 1.459-0.112c0.673-0.561 3.704-1.908 6.734-3.030 2.919-1.122 5.275-2.469 5.275-3.142 0-0.561 1.011-0.673 2.245-0.338s2.245 0.225 2.245-0.338c0-0.673 1.572-1.684 3.368-2.358 1.908-0.561 3.368-1.572 3.368-2.020 0-0.449 1.347-1.011 3.032-1.122 1.572 0 3.368-0.899 3.815-1.796 0.561-0.899 3.255-2.469 6.061-3.48 2.806-1.122 5.052-2.58 5.052-3.142 0-0.673 0.338-0.899 0.673-0.561 0.449 0.338 2.020-0.338 3.592-1.459 1.459-1.234 3.48-2.245 4.265-2.245 0.899 0 2.469-0.899 3.592-2.020 1.122-1.011 3.815-2.919 5.949-4.041 2.133-1.234 4.826-2.694 5.949-3.368 1.122-0.673 3.368-2.358 4.939-3.815 1.572-1.347 3.48-2.469 4.378-2.469 0.786 0 1.796-0.786 2.133-1.684 0.449-0.899 1.347-1.684 2.133-1.684s3.032-1.459 4.939-3.255c1.908-1.796 4.041-3.592 4.826-3.929 3.48-1.796 6.173-3.592 8.418-5.725 6.286-5.949 8.643-7.857 13.245-10.775 5.612-3.592 39.847-36.703 39.847-38.613 0-0.673 1.459-2.358 3.368-3.704 1.796-1.459 3.368-3.255 3.368-4.153 0-0.899 1.572-2.694 3.368-4.153 1.796-1.347 3.368-3.142 3.368-3.929 0-0.786 1.011-2.020 2.245-2.806s2.245-1.908 2.245-2.358c0-0.561 1.572-3.032 3.48-5.388 1.908-2.358 3.032-4.378 2.582-4.378-0.449 0 0.449-1.234 1.908-2.694 4.153-4.153 5.386-5.949 4.714-6.734-0.449-0.338-0.112-0.673 0.561-0.673 0.786 0 1.347-0.786 1.347-1.684s0.561-1.684 1.122-1.684c0.673 0 1.122-0.673 1.122-1.459 0-0.673 1.011-2.582 2.245-4.153 1.234-1.572 2.245-3.704 2.245-4.826 0-1.011 0.449-1.908 1.122-1.908 0.561 0 1.796-1.796 2.694-3.929 0.899-2.133 2.245-3.929 3.032-3.929 0.786 0 1.011-0.899 0.673-2.358-0.338-1.347 0-2.469 0.899-2.806 0.899-0.338 2.133-2.358 2.806-4.49 0.673-2.133 1.796-3.815 2.358-3.815 0.673 0 0.786-1.011 0.449-2.245-0.449-1.347-0.225-2.245 0.561-2.245 0.673 0 0.899-0.561 0.561-1.122-0.338-0.673-0.225-1.122 0.449-1.122 0.561 0 2.020-2.806 3.032-6.173 1.122-3.368 2.469-6.173 3.030-6.173s0.786-0.786 0.338-1.684c-0.338-0.899-0.225-1.684 0.338-1.684 0.449 0 1.796-3.032 3.032-6.734 1.122-3.704 2.582-6.734 3.030-6.734 0.561 0 0.561-1.011 0.225-2.245-0.449-1.347-0.225-2.245 0.561-2.245s1.122-0.786 0.673-1.684c-0.338-0.899-0.225-1.684 0.338-1.684s1.572-3.030 2.358-6.734c0.786-3.704 1.908-6.734 2.469-6.734 0.673 0 0.786-1.234 0.449-2.806-0.449-1.796-0.225-2.806 0.561-2.806s1.011-1.011 0.561-2.919c-0.561-2.020-0.338-2.694 0.561-2.020 0.899 0.561 1.122-0.112 0.786-2.245-0.338-1.572-0.112-2.919 0.338-2.919 0.561 0 1.011-4.265 1.011-9.541s-0.449-9.541-0.899-9.541c-0.561 0-0.786-1.459-0.449-3.368 0.225-1.908 0-3.368-0.673-3.368s-0.899-1.011-0.561-2.245c0.338-1.234 0-2.245-0.673-2.245-0.786 0-1.011-1.011-0.561-2.806 0.449-1.684 0.225-2.806-0.561-2.806-0.673 0-1.234-1.011-1.234-2.133 0-1.234-0.449-2.582-1.122-2.919-0.561-0.338-1.122-2.133-1.122-4.041 0-1.796-0.449-3.255-1.122-3.255-0.561 0-0.786-0.786-0.449-1.684 0.449-0.899 0.112-1.684-0.561-1.684s-1.122-0.338-1.011-0.899c0.112-0.449-0.449-2.133-1.011-3.704-0.673-1.572-1.908-4.939-2.694-7.521-0.673-2.582-1.796-4.378-2.469-3.929-0.561 0.338-0.673-0.338-0.225-1.796 0.449-1.459 0.225-2.358-0.561-2.358-0.673 0-0.899-0.561-0.561-1.122 0.338-0.673 0.225-1.122-0.225-1.122-0.561 0-1.908-2.582-3.032-5.612-1.122-3.142-2.694-6.286-3.368-7.073-0.673-0.786-2.245-3.592-3.48-6.398s-2.806-5.5-3.592-5.949c-0.899-0.561-1.234-1.347-0.899-2.020 0.449-0.561 0.112-1.011-0.449-1.011-0.673 0-1.234-0.561-1.234-1.234 0-0.673-2.020-4.265-4.49-7.857s-4.49-7.073-4.49-7.633-1.234-2.133-2.806-3.592c-1.459-1.459-2.806-3.255-2.806-4.041 0-0.673-1.234-2.245-2.806-3.48-1.459-1.234-2.469-2.469-2.133-2.806 0.338-0.225-0.673-1.572-2.245-2.806-1.684-1.234-2.919-2.919-2.919-3.704 0-0.899-1.796-3.030-3.929-4.714s-3.929-3.592-3.929-4.153-2.469-3.592-5.613-6.622c-3.030-3.142-5.612-5.949-5.612-6.286 0-1.122-32.327-33.112-33.449-33.112-0.449 0-2.469-1.684-4.378-3.704-1.908-1.908-5.838-5.613-8.755-8.082-3.032-2.469-6.286-5.275-7.295-6.173-0.899-0.899-3.48-3.030-5.612-4.602-2.133-1.684-5.164-4.041-6.622-5.388-1.459-1.234-3.368-2.358-4.265-2.358-0.786 0-1.796-0.786-2.133-1.684-0.449-0.899-2.694-2.806-5.052-4.153-2.358-1.347-4.378-2.919-4.378-3.368 0-0.561-0.449-0.786-1.011-0.449-0.449 0.338-1.796-0.338-2.806-1.459-1.122-1.234-3.48-2.806-5.275-3.48-1.796-0.786-3.255-1.908-3.255-2.469 0-0.561-0.561-0.673-1.122-0.338-0.673 0.338-1.459-0.112-1.796-1.011-0.338-1.011-1.347-1.795-2.133-1.795s-2.58-1.122-4.041-2.582c-1.459-1.347-5.5-3.704-8.867-5.275-3.368-1.459-6.734-3.368-7.521-4.265-0.673-0.899-1.796-1.234-2.469-0.786-0.673 0.338-1.234 0.225-1.234-0.338s-1.459-1.684-3.368-2.469c-1.796-0.786-3.368-1.796-3.368-2.245 0-0.899-10.775-5.613-13.020-5.613-0.786 0-2.245-0.786-3.142-1.796-1.011-0.899-4.714-2.806-8.306-4.041-3.48-1.234-6.622-2.694-6.96-3.255-0.338-0.449-5.164-2.358-10.664-4.041-5.612-1.684-10.439-3.48-10.775-3.929-0.338-0.561-4.378-2.020-8.979-3.255-4.602-1.347-8.867-2.806-9.541-3.368-0.673-0.561-2.133-0.786-3.142-0.338-1.011 0.449-1.796 0.112-1.796-0.673s-0.786-1.122-1.908-0.673c-1.011 0.449-2.133 0.225-2.58-0.449-0.449-0.673-3.815-1.796-7.633-2.469-3.815-0.673-6.96-1.684-6.96-2.245s-1.234-0.673-2.694-0.225c-1.459 0.338-3.030 0.112-3.48-0.673-0.449-0.673-1.684-0.899-2.919-0.561-1.122 0.449-2.133 0.225-2.133-0.338s-6.286-1.908-14.031-3.142c-7.745-1.122-14.031-2.469-14.031-2.919 0-0.561-2.020-0.561-4.49-0.223-3.142 0.561-4.49 0.338-4.49-0.561 0-1.011-1.684-1.234-6.173-0.673-3.704 0.561-6.173 0.338-6.173-0.225 0-2.133-37.602-4.041-88.673-4.265-28.735-0.225-53.428-0.225-55.001 0z" p-id="5962"></path></svg>
