<svg
  version="1.1"
  xmlns="http://www.w3.org/2000/svg"
  xmlns:xlink="http://www.w3.org/1999/xlink"
  x="0px"
  y="0px"
  viewBox="0 0 800 320"
  style="enable-background: new 0 0 800 320"
  xml:space="preserve"
>
  <style type="text/css">
    .st0 {
      fill-rule: evenodd;
      clip-rule: evenodd;
      fill: #50554a;
    }
    .st1 {
      fill: #e85349;
    }
    .st2 {
      fill: #f3bb4b;
    }
    .st3 {
      fill: #ba4b97;
    }
    .st4 {
      fill: #46b574;
    }
  </style>
  <g transform="translate(75.11500549316406,87.94315719604492)">
    <g transform="matrix(1,0,0,1,0,10.587577819824219)">
      <g>
        <g>
          <path
            class="st0"
            d="M200.2,5.9c0,11.5-3.6,23-12.9,32.3c-11.5,11.5-29.4,15.1-44.5,10L122,69.1l-11.5-10.8l8.6-8.6
					c2.1-2.2-2.1-6.5-4.3-4.3l-8.6,8.6l-0.7-0.7l-7.2,3.6l-8.6-9.3l26.6-25.9c-5-15.1-2.1-33,10-45.2c17.2-16.5,44.5-16.5,61,0
					L157.1-12C151.4-9.1,147.8-2,150,4.5l2.9,5.8c2.1,6.5,9.3,10.1,15.8,7.9l30.9-12.2L200.2,5.9L200.2,5.9z M104,60.5l79.7,77.6
					l-27.3,26.6l-76.8-79l2.9-7.2L38.7,34.7c-3.6,2.9-8.6,2.1-12.9-0.7L21.4,44l0.7,0.7c2.1,2.2,2.1,5.8,0,7.2L9.2,64.8
					c-2.1,2.2-5,2.2-7.2,0l-28-28c-1.4-1.4-1.4-5,0-7.2l12.9-12.2c2.1-2.2,5-2.2,7.2,0h0.7l10-3.6C2,8.8,1.3,3.1,4.9-0.5l12.9-12.2
					c17.2-19.4,46.7-23,81.9-19.4L99-24.9C66.7-17.8,55.9-6.3,52.3,18.9l45.2,45.2L104,60.5z M88.2,103.6L35.8,156
					c-7.9,7.2-20.1,7.2-27.3,0l0,0c-7.2-7.9-7.2-19.4,0-27.3l58.2-57.4l8.6,8.6l-3.6,7.2l0.7,0.7l-34.5,34.5
					c-2.1,2.2,2.1,6.5,4.3,4.3l34.5-34.5L88.2,103.6z M27.9,136.6c2.9,2.1,2.9,6.5,0,9.3c-2.9,2.1-6.5,2.1-9.3,0
					c-2.9-2.9-2.9-7.2,0-9.3C21.4,133.8,25,133.8,27.9,136.6z"
          />
        </g>
      </g>
    </g>
  </g>
</svg>
