<svg t="1683600154142" class="icon" viewBox="0 0 1024 1024" version="1.1" xmlns="http://www.w3.org/2000/svg" p-id="2873" width="16" height="16"><path d="M861.8624 0C937.2672 0 998.4 61.1328 998.4 136.5376v750.9248C998.4 962.8672 937.2672 1024 861.8624 1024H162.1376C86.7328 1024 25.6 962.8672 25.6 887.4624V136.5376C25.6 61.1328 86.7328 0 162.1376 0h699.7248z m0 51.2H162.1376a85.3376 85.3376 0 0 0-85.2864 82.3424L76.8 136.5376v750.9248c0 46.1312 36.608 83.712 82.3424 85.2864l2.9952 0.0512h699.7248c46.1312 0 83.712-36.608 85.2864-82.3424l0.0512-2.9952V136.5376c0-46.1312-36.608-83.712-82.3424-85.2864L861.8624 51.2z" fill="#2c2c2c" p-id="2874"></path><path d="M550.016 422.4A38.784 38.784 0 0 1 588.8 461.184v76.032A38.784 38.784 0 0 1 550.016 576h-76.032A38.784 38.784 0 0 1 435.2 537.216v-76.032A38.784 38.784 0 0 1 473.984 422.4h76.032z m0 38.4h-76.032a0.384 0.384 0 0 0-0.3328 0.192L473.6 461.184v76.032c0 0.128 0.0768 0.256 0.192 0.3328l0.192 0.0512h76.032a0.384 0.384 0 0 0 0.3328-0.192L550.4 537.216v-76.032a0.384 0.384 0 0 0-0.192-0.3328L550.016 460.8zM614.4 307.2v64h-102.4v-64h102.4z m-102.4-64v64h-102.4v-64h102.4z m102.4-64v64h-102.4v-64h102.4z m-102.4-64v64h-102.4V115.2h102.4z" fill="#2c2c2c" p-id="2875"></path><path d="M335.5392 819.2v-64.6656h25.7792c8.0768 0 14.3232 2.24 18.7264 6.72 4.4032 4.48 6.6048 10.752 6.6048 18.8288v11.456c0 5.1072 0.4352 10.4064 1.28 15.872 0.8576 5.504 2.7648 9.4208 5.7216 11.7888h33.4464v-2.3296c-2.9568-2.368-5.056-6.016-6.272-10.944a58.816 58.816 0 0 1-1.8304-14.1696v-11.8912c0-9.7024-2.0992-17.856-6.272-24.448-4.1984-6.592-11.072-11.2896-20.6208-14.1056 8.448-3.712 14.8736-8.576 19.2768-14.6176 4.4032-6.0288 6.6048-13.1968 6.6048-21.504 0-15.0272-5.1968-26.752-15.616-35.1616-10.3936-8.3968-24.832-12.608-43.264-12.608H303.104V819.2h32.4352z m23.0016-89.664h-23.0016v-47.104h23.552c8.6784 0 15.2448 2.176 19.7248 6.5408 4.48 4.3776 6.7328 10.2656 6.7328 17.664 0 7.552-2.2272 13.2608-6.6688 17.1136-4.4416 3.8528-11.2256 5.7856-20.3392 5.7856zM469.0944 819.2l10.8928-34.8928h52.4416l11.008 34.8928h33.8816L523.008 657.4208h-33.2288L435.2128 819.2h33.8816z m55.4496-60.3392h-36.5568l17.9968-56.9984h0.6656l17.8944 56.9984zM625.3184 819.2v-64.6656h25.7792c8.0768 0 14.3232 2.24 18.7264 6.72 4.4032 4.48 6.6048 10.752 6.6048 18.8288v11.456c0 5.1072 0.4352 10.4064 1.28 15.872 0.8576 5.504 2.7648 9.4208 5.7216 11.7888h33.4464v-2.3296c-2.9568-2.368-5.056-6.016-6.272-10.944a58.816 58.816 0 0 1-1.8432-14.1696v-11.8912c0-9.7024-2.0864-17.856-6.272-24.448-4.1856-6.592-11.0592-11.2896-20.608-14.1056 8.448-3.712 14.8608-8.576 19.2768-14.6176 4.4032-6.0288 6.6048-13.1968 6.6048-21.504 0-15.0272-5.1968-26.752-15.616-35.1616-10.3936-8.3968-24.832-12.608-43.264-12.608h-56V819.2h32.4352z m23.0016-89.664h-23.0016v-47.104h23.552c8.6784 0 15.2448 2.176 19.7248 6.5408 4.48 4.3776 6.7328 10.2656 6.7328 17.664 0 7.552-2.2272 13.2608-6.6688 17.1136-4.4544 3.8528-11.2256 5.7856-20.3392 5.7856z" fill="#2c2c2c" p-id="2876"></path></svg>
