<svg t="1683612428016" class="icon" viewBox="0 0 1024 1024" version="1.1" xmlns="http://www.w3.org/2000/svg" p-id="5430" width="16" height="16"><path d="M686.4 275.8H348.8c-1.2 0-2.2 0-3.4-0.2s-2.2-0.2-3.2-0.4-2.2-0.4-3.2-0.8-2-0.6-3.2-1.2c-1-0.4-2-0.8-3-1.4-1-0.6-2-1-2.8-1.8-1-0.6-1.8-1.2-2.6-2s-1.6-1.4-2.4-2.2c-0.8-0.8-1.6-1.6-2.2-2.4-0.8-0.8-1.4-1.8-2-2.6-0.6-1-1.2-1.8-1.8-2.8-0.6-1-1-2-1.4-3-0.4-1-0.8-2-1.2-3.2-0.4-1-0.6-2.2-0.8-3.2s-0.4-2.2-0.4-3.2-0.2-2.2-0.2-3.4c0-1.2 0-2.2 0.2-3.4s0.2-2.2 0.4-3.2 0.4-2.2 0.8-3.2 0.6-2 1.2-3.2c0.4-1 0.8-2 1.4-3 0.6-1 1-2 1.8-2.8s1.2-1.8 2-2.6 1.4-1.6 2.2-2.4c0.8-0.8 1.6-1.6 2.4-2.2 0.8-0.8 1.8-1.4 2.6-2 1-0.6 1.8-1.2 2.8-1.8 1-0.6 2-1 3-1.4 1-0.4 2-0.8 3.2-1.2s2.2-0.6 3.2-0.8c1-0.2 2.2-0.4 3.2-0.4 1.2-0.2 2.2-0.2 3.4-0.2h337.4c1.2 0 2.2 0 3.4 0.2 1.2 0.2 2.2 0.2 3.2 0.4s2.2 0.4 3.2 0.8 2 0.6 3.2 1.2c1 0.4 2 0.8 3 1.4 1 0.6 2 1 2.8 1.8 1 0.6 1.8 1.2 2.6 2s1.6 1.4 2.4 2.2c0.8 0.8 1.6 1.6 2.2 2.4 0.8 0.8 1.4 1.8 2 2.6 0.6 1 1.2 1.8 1.8 2.8 0.6 1 1 2 1.4 3 0.4 1 0.8 2 1.2 3.2 0.4 1 0.6 2.2 0.8 3.2 0.2 1 0.4 2.2 0.4 3.2 0.2 1.2 0.2 2.2 0.2 3.4 0 1.2 0 2.2-0.2 3.4-0.2 1.2-0.2 2.2-0.4 3.2s-0.4 2.2-0.8 3.2-0.6 2-1.2 3.2c-0.4 1-0.8 2-1.4 3-0.6 1-1 2-1.8 2.8-0.6 1-1.2 1.8-2 2.6s-1.4 1.6-2.2 2.4c-0.8 0.8-1.6 1.6-2.4 2.2s-1.8 1.4-2.6 2c-1 0.6-1.8 1.2-2.8 1.8-1 0.6-2 1-3 1.4-1 0.4-2 0.8-3.2 1.2-1 0.4-2.2 0.6-3.2 0.8-1 0.2-2.2 0.4-3.2 0.4s-2.2 0.2-3.2 0.2z m0 168.6H348.8c-1.2 0-2.2 0-3.4-0.2-1.2-0.2-2.2-0.2-3.2-0.4s-2.2-0.4-3.2-0.8-2-0.6-3.2-1.2c-1-0.4-2-0.8-3-1.4-1-0.6-2-1-2.8-1.8-1-0.6-1.8-1.2-2.6-2s-1.6-1.4-2.4-2.2c-0.8-0.8-1.6-1.6-2.2-2.4-0.8-0.8-1.4-1.8-2-2.6-0.6-1-1.2-1.8-1.8-2.8-0.6-1-1-2-1.4-3-0.4-1-0.8-2-1.2-3.2s-0.6-2.2-0.8-3.2-0.4-2.2-0.4-3.2c-0.2-1-0.2-2.2-0.2-3.4 0-1.2 0-2.2 0.2-3.4 0.2-1 0.2-2.2 0.4-3.2s0.4-2.2 0.8-3.2 0.6-2 1.2-3.2 0.8-2 1.4-3c0.6-1 1-2 1.8-2.8 0.6-1 1.2-1.8 2-2.6s1.4-1.6 2.2-2.4c0.8-0.8 1.6-1.6 2.4-2.2 0.8-0.8 1.8-1.4 2.6-2 1-0.6 1.8-1.2 2.8-1.8 1-0.6 2-1 3-1.4 1-0.4 2-0.8 3.2-1.2s2.2-0.6 3.2-0.8c1-0.2 2.2-0.4 3.2-0.4 1.2-0.2 2.2-0.2 3.4-0.2h337.4c1.2 0 2.2 0 3.4 0.2 1.2 0.2 2.2 0.2 3.2 0.4s2.2 0.4 3.2 0.8 2 0.6 3.2 1.2c1 0.4 2 0.8 3 1.4 1 0.6 2 1 2.8 1.8 1 0.6 1.8 1.2 2.6 2s1.6 1.4 2.4 2.2c0.8 0.8 1.6 1.6 2.2 2.4 0.8 0.8 1.4 1.8 2 2.6 0.6 1 1.2 1.8 1.8 2.8 0.6 1 1 2 1.4 3 0.4 1 0.8 2 1.2 3.2 0.4 1 0.6 2.2 0.8 3.2 0.2 1 0.4 2.2 0.4 3.2 0.2 1.2 0.2 2.2 0.2 3.4 0 1.2 0 2.2-0.2 3.4-0.2 1.2-0.2 2.2-0.4 3.2s-0.4 2.2-0.8 3.2-0.6 2-1.2 3.2c-0.4 1-0.8 2-1.4 3-0.6 1-1 2-1.8 2.8-0.6 1-1.2 1.8-2 2.6s-1.4 1.6-2.2 2.4c-0.8 0.8-1.6 1.6-2.4 2.2-0.8 0.8-1.8 1.4-2.6 2-1 0.6-1.8 1.2-2.8 1.8-1 0.6-2 1-3 1.4-1 0.4-2 0.8-3.2 1.2s-2.2 0.6-3.2 0.8c-1 0.2-2.2 0.4-3.2 0.4-1 0.2-2.2 0.2-3.2 0.2z m-168.8 168.8h-168.8c-1.2 0-2.2 0-3.4-0.2s-2.2-0.2-3.2-0.4-2.2-0.4-3.2-0.8-2-0.6-3.2-1.2c-1-0.4-2-0.8-3-1.4-1-0.6-2-1-2.8-1.8-1-0.6-1.8-1.2-2.6-2s-1.6-1.4-2.4-2.2c-0.8-0.8-1.6-1.6-2.2-2.4-0.8-0.8-1.4-1.8-2-2.6-0.6-1-1.2-1.8-1.8-2.8-0.6-1-1-2-1.4-3-0.4-1-0.8-2-1.2-3.2s-0.6-2.2-0.8-3.2-0.4-2.2-0.4-3.2c-0.2-1.2-0.2-2.2-0.2-3.4 0-1.2 0-2.2 0.2-3.4s0.2-2.2 0.4-3.2 0.4-2.2 0.8-3.2 0.6-2 1.2-3.2c0.4-1 0.8-2 1.4-3 0.6-1 1-2 1.8-2.8 0.6-1 1.2-1.8 2-2.6s1.4-1.6 2.2-2.4c0.8-0.8 1.6-1.6 2.4-2.2 0.8-0.8 1.8-1.4 2.6-2 1-0.6 1.8-1.2 2.8-1.8 1-0.6 2-1 3-1.4 1-0.4 2-0.8 3.2-1.2s2.2-0.6 3.2-0.8c1-0.2 2.2-0.4 3.2-0.4s2.2-0.2 3.4-0.2h168.8c1.2 0 2.2 0 3.4 0.2 1.2 0.2 2.2 0.2 3.2 0.4s2.2 0.4 3.2 0.8 2 0.6 3.2 1.2c1 0.4 2 0.8 3 1.4 1 0.6 2 1 2.8 1.8s1.8 1.2 2.6 2 1.6 1.4 2.4 2.2 1.6 1.6 2.2 2.4c0.8 0.8 1.4 1.8 2 2.6 0.6 1 1.2 1.8 1.8 2.8 0.6 1 1 2 1.4 3 0.4 1 0.8 2 1.2 3.2 0.4 1 0.6 2.2 0.8 3.2 0.2 1 0.4 2.2 0.4 3.2 0.2 1.2 0.2 2.2 0.2 3.4s0 2.2-0.2 3.4c-0.2 1-0.2 2.2-0.4 3.2s-0.4 2.2-0.8 3.2-0.6 2-1.2 3.2c-0.4 1-0.8 2-1.4 3-0.6 1-1 2-1.8 2.8-0.6 1-1.2 1.8-2 2.6s-1.4 1.6-2.2 2.4c-0.8 0.8-1.6 1.6-2.4 2.2-0.8 0.8-1.8 1.4-2.6 2-1 0.6-1.8 1.2-2.8 1.8-1 0.6-2 1-3 1.4-1 0.4-2 0.8-3.2 1.2-1 0.4-2.2 0.6-3.2 0.8-1 0.2-2.2 0.4-3.2 0.4-1.2 0.2-2.2 0.2-3.4 0.2zM753.8 39.6H281.4c-2.2 0-4.4 0-6.6 0.2-2.2 0.2-4.4 0.2-6.6 0.4-2.2 0.2-4.4 0.4-6.6 0.8l-6.6 1.2c-2.2 0.4-4.4 1-6.4 1.4-2.2 0.6-4.2 1.2-6.4 1.8-2.2 0.6-4.2 1.4-6.2 2-2 0.8-4.2 1.6-6.2 2.4s-4 1.8-6 2.6l-6 3c-2 1-3.8 2.2-5.8 3.2-1.8 1.2-3.8 2.4-5.6 3.6-1.8 1.2-3.6 2.4-5.4 3.8-1.8 1.4-3.6 2.6-5.2 4-1.8 1.4-3.4 2.8-5 4.4-1.6 1.4-3.2 3-4.8 4.6-1.6 1.6-3 3.2-4.6 4.8-1.4 1.6-3 3.4-4.4 5-1.4 1.8-2.8 3.4-4 5.2-1.4 1.8-2.6 3.6-3.8 5.4-1.2 1.8-2.4 3.8-3.6 5.6-1.2 1.8-2.2 3.8-3.2 5.8l-3 6c-1 2-1.8 4-2.6 6s-1.6 4-2.4 6.2c-0.8 2-1.4 4.2-2 6.2-0.6 2.2-1.2 4.2-1.8 6.4-0.6 2.2-1 4.2-1.4 6.4l-1.2 6.6c-0.4 2.2-0.6 4.4-0.8 6.6-0.2 2.2-0.4 4.4-0.4 6.6-0.2 2.2-0.2 4.4-0.2 6.6v675c0 2.2 0 4.4 0.2 6.6 0.2 2.2 0.2 4.4 0.4 6.6 0.2 2.2 0.4 4.4 0.8 6.6l1.2 6.6c0.4 2.2 1 4.4 1.4 6.4 0.6 2.2 1.2 4.2 1.8 6.4 0.6 2.2 1.4 4.2 2 6.2 0.8 2 1.6 4.2 2.4 6.2 0.8 2 1.8 4 2.6 6l3 6c1 2 2.2 3.8 3.2 5.8 1.2 1.8 2.4 3.8 3.6 5.6 1.2 1.8 2.4 3.6 3.8 5.4 1.4 1.8 2.6 3.6 4 5.2 1.4 1.8 2.8 3.4 4.4 5 1.4 1.6 3 3.2 4.6 4.8 1.6 1.6 3.2 3 4.8 4.6 1.6 1.4 3.4 3 5 4.4s3.4 2.8 5.2 4c1.8 1.4 3.6 2.6 5.4 3.8 1.8 1.2 3.8 2.4 5.6 3.6 1.8 1.2 3.8 2.2 5.8 3.2l6 3c2 1 4 1.8 6 2.6s4 1.6 6.2 2.4c2 0.8 4.2 1.4 6.2 2 2.2 0.6 4.2 1.2 6.4 1.8 2.2 0.6 4.2 1 6.4 1.4l6.6 1.2c2.2 0.4 4.4 0.6 6.6 0.8 2.2 0.2 4.4 0.4 6.6 0.4 2.2 0.2 4.4 0.2 6.6 0.2h472.4c2.2 0 4.4 0 6.6-0.2 2.2-0.2 4.4-0.2 6.6-0.4 2.2-0.2 4.4-0.4 6.6-0.8l6.6-1.2c2.2-0.4 4.4-1 6.4-1.4 2.2-0.6 4.2-1.2 6.4-1.8 2.2-0.6 4.2-1.4 6.2-2s4.2-1.6 6.2-2.4c2-0.8 4-1.8 6-2.6l6-3c2-1 3.8-2.2 5.8-3.2 1.8-1.2 3.8-2.4 5.6-3.6 1.8-1.2 3.6-2.4 5.4-3.8 1.8-1.4 3.6-2.6 5.2-4 1.8-1.4 3.4-2.8 5-4.4 1.6-1.4 3.2-3 4.8-4.6 1.6-1.6 3-3.2 4.6-4.8 1.4-1.6 3-3.4 4.4-5 1.4-1.8 2.8-3.4 4-5.2 1.4-1.8 2.6-3.6 3.8-5.4 1.2-1.8 2.4-3.8 3.6-5.6 1.2-1.8 2.2-3.8 3.2-5.8l3-6c1-2 1.8-4 2.6-6s1.6-4 2.4-6.2c0.8-2 1.4-4.2 2-6.2 0.6-2.2 1.2-4.2 1.8-6.4 0.6-2.2 1-4.2 1.4-6.4l1.2-6.6c0.4-2.2 0.6-4.4 0.8-6.6 0.2-2.2 0.4-4.4 0.4-6.6 0.2-2.2 0.2-4.4 0.2-6.6V174.6c0-2.2 0-4.4-0.2-6.6-0.2-2.2-0.2-4.4-0.4-6.6-0.2-2.2-0.4-4.4-0.8-6.6l-1.2-6.6c-0.4-2.2-1-4.4-1.4-6.4-0.6-2.2-1.2-4.2-1.8-6.4-0.6-2.2-1.4-4.2-2-6.2-0.8-2-1.6-4.2-2.4-6.2-0.8-2-1.8-4-2.6-6l-3-6c-1-2-2.2-3.8-3.2-5.8-1.2-1.8-2.4-3.8-3.6-5.6-1.2-1.8-2.4-3.6-3.8-5.4-1.4-1.8-2.6-3.6-4-5.2s-2.8-3.4-4.4-5c-1.4-1.6-3-3.2-4.6-4.8s-3.2-3-4.8-4.6c-1.6-1.4-3.4-3-5-4.4-1.8-1.4-3.4-2.8-5.2-4-1.8-1.4-3.6-2.6-5.4-3.8-1.8-1.2-3.8-2.4-5.6-3.6-1.8-1.2-3.8-2.2-5.8-3.2l-6-3c-2-1-4-1.8-6-2.6s-4-1.6-6.2-2.4-4.2-1.4-6.2-2c-2.2-0.6-4.2-1.2-6.4-1.8-2.2-0.6-4.2-1-6.4-1.4l-6.6-1.2c-2.2-0.4-4.4-0.6-6.6-0.8-2.2-0.2-4.4-0.4-6.6-0.4-2.2-0.4-4.4-0.4-6.6-0.4z" p-id="5431" fill="#515151"></path></svg>
