<svg t="1683600295096" class="icon" viewBox="0 0 1024 1024" version="1.1" xmlns="http://www.w3.org/2000/svg" p-id="5384" width="16" height="16"><path d="M752 160H400c-61.8 0-112 50.2-112 112v16h448v320H416V416H288v208c0 61.8 50.2 112 112 112h352c61.8 0 112-50.2 112-112V272c0-61.8-50.2-112-112-112z" fill="#2c2c2c" p-id="5385"></path><path d="M736 608V400c0-61.8-50.2-112-112-112H272c-61.8 0-112 50.2-112 112v352c0 61.8 50.2 112 112 112h352c61.8 0 112-50.2 112-112v-16H288V416h320v192h128z" fill="#2c2c2c" p-id="5386"></path></svg>
