<svg t="1683606964420" class="icon" viewBox="0 0 1024 1024" version="1.1" xmlns="http://www.w3.org/2000/svg" p-id="3553" width="16" height="16"><path d="M463.236443 275.840655a109.747 109.747 0 1 0 100.4454-200.8908 109.747 109.747 0 1 0-100.4454 200.8908Z" fill="#2c2c2c" p-id="3554"></path><path d="M92.013911 793.041332a109.747 109.747 0 1 0 194.511888-112.304785 109.747 109.747 0 1 0-194.511888 112.304785Z" fill="#2c2c2c" p-id="3555"></path><path d="M102.979396 529.788132c24.616654-10.286274 50.237171-15.911388 75.830059-17.084097 10.590196-95.803973 61.4874-179.515536 135.363967-233.991242-11.915377-22.935362-19.930935-48.169069-23.315008-74.881454C182.53122 273.79376 109.614513 393.151172 102.979396 529.788132z" fill="#2c2c2c" p-id="3556"></path><path d="M848.13255 512.704035c25.592888 1.171686 51.212382 6.797823 75.829036 17.084097-6.635117-136.635937-79.551824-255.994372-187.877995-325.956793-3.384074 26.712385-11.396561 51.944046-23.311939 74.876338C786.649244 333.183382 837.544401 416.895969 848.13255 512.704035z" fill="#2c2c2c" p-id="3557"></path><path d="M648.741337 858.079086c-41.446971 18.253736-87.148849 28.567639-135.269823 28.567639-48.118927 0-93.820805-10.313903-135.267776-28.569686-13.892405 21.701255-31.692816 41.191144-53.076846 57.417711 56.513108 29.223578 120.454396 46.02115 188.344622 46.02115s131.831514-16.798595 188.344622-46.02115C680.434154 899.268184 662.632719 879.780341 648.741337 858.079086z" fill="#2c2c2c" p-id="3558"></path><path d="M781.496903 834.184776a109.747 109.747 0 1 0 112.304785-194.511888 109.747 109.747 0 1 0-112.304785 194.511888Z" fill="#2c2c2c" p-id="3559"></path></svg>
